<mxfile host="app.diagrams.net" agent="Mozilla/5.0 (Macintosh; Intel Mac OS X 10_15_7) AppleWebKit/537.36 (KHTML, like Gecko) Chrome/130.0.0.0 Safari/537.36" version="26.0.10">
  <diagram id="In--U9JGvR_X9o0tAHp4" name="Page-1">
    <mxGraphModel dx="1154" dy="548" grid="1" gridSize="10" guides="1" tooltips="1" connect="1" arrows="1" fold="1" page="1" pageScale="1" pageWidth="850" pageHeight="1100" math="0" shadow="0">
      <root>
        <mxCell id="0" />
        <mxCell id="1" parent="0" />
        <mxCell id="Nwy2QZYa2tBsVKEyR5RB-47" style="edgeStyle=orthogonalEdgeStyle;rounded=0;orthogonalLoop=1;jettySize=auto;html=1;" edge="1" parent="1" source="Nwy2QZYa2tBsVKEyR5RB-4" target="Nwy2QZYa2tBsVKEyR5RB-46">
          <mxGeometry relative="1" as="geometry" />
        </mxCell>
        <mxCell id="Nwy2QZYa2tBsVKEyR5RB-4" value="&lt;font style=&quot;font-size: 8px;&quot;&gt;Algolia&lt;/font&gt;" style="shape=cylinder3;whiteSpace=wrap;html=1;boundedLbl=1;backgroundOutline=1;size=6.8421052631579755;" vertex="1" parent="1">
          <mxGeometry x="90" y="283.66" width="40" height="40" as="geometry" />
        </mxCell>
        <mxCell id="Nwy2QZYa2tBsVKEyR5RB-10" value="&lt;b&gt;Chunking&lt;/b&gt;" style="text;html=1;align=center;verticalAlign=middle;resizable=0;points=[];autosize=1;strokeColor=none;fillColor=none;" vertex="1" parent="1">
          <mxGeometry x="195" y="239.32" width="80" height="30" as="geometry" />
        </mxCell>
        <mxCell id="Nwy2QZYa2tBsVKEyR5RB-11" value="&lt;font style=&quot;font-size: 8px;&quot;&gt;hotels&lt;/font&gt;" style="text;html=1;align=center;verticalAlign=middle;whiteSpace=wrap;rounded=0;" vertex="1" parent="1">
          <mxGeometry x="130" y="279.99999999999994" width="60" height="30" as="geometry" />
        </mxCell>
        <mxCell id="Nwy2QZYa2tBsVKEyR5RB-12" value="" style="shape=actor;whiteSpace=wrap;html=1;" vertex="1" parent="1">
          <mxGeometry x="80" y="405" width="40" height="60" as="geometry" />
        </mxCell>
        <mxCell id="Nwy2QZYa2tBsVKEyR5RB-13" value="Backend" style="swimlane;whiteSpace=wrap;html=1;dashed=1;" vertex="1" parent="1">
          <mxGeometry x="160" y="380" width="130" height="100" as="geometry" />
        </mxCell>
        <mxCell id="Nwy2QZYa2tBsVKEyR5RB-14" value="" style="aspect=fixed;sketch=0;html=1;dashed=0;whitespace=wrap;verticalLabelPosition=bottom;verticalAlign=top;fillColor=#2875E2;strokeColor=#ffffff;points=[[0.005,0.63,0],[0.1,0.2,0],[0.9,0.2,0],[0.5,0,0],[0.995,0.63,0],[0.72,0.99,0],[0.5,1,0],[0.28,0.99,0]];shape=mxgraph.kubernetes.icon2;prIcon=api" vertex="1" parent="Nwy2QZYa2tBsVKEyR5RB-13">
          <mxGeometry x="35" y="40" width="50" height="48" as="geometry" />
        </mxCell>
        <mxCell id="Nwy2QZYa2tBsVKEyR5RB-15" value="&lt;pre&gt;&lt;font style=&quot;font-size: 6px;&quot;&gt;&amp;lt;BE_BASE_URL&amp;gt;/magic-search&lt;/font&gt;&lt;/pre&gt;" style="text;html=1;align=center;verticalAlign=middle;resizable=0;points=[];autosize=1;strokeColor=none;fillColor=none;" vertex="1" parent="Nwy2QZYa2tBsVKEyR5RB-13">
          <mxGeometry x="-8" y="7" width="120" height="50" as="geometry" />
        </mxCell>
        <mxCell id="Nwy2QZYa2tBsVKEyR5RB-16" value="&lt;font style=&quot;font-size: 8px;&quot;&gt;query&lt;/font&gt;" style="text;html=1;align=center;verticalAlign=middle;resizable=0;points=[];autosize=1;strokeColor=none;fillColor=none;" vertex="1" parent="Nwy2QZYa2tBsVKEyR5RB-13">
          <mxGeometry x="80" y="27" width="40" height="30" as="geometry" />
        </mxCell>
        <mxCell id="Nwy2QZYa2tBsVKEyR5RB-17" value="&lt;font style=&quot;font-size: 8px;&quot;&gt;hotels&lt;/font&gt;" style="text;html=1;align=center;verticalAlign=middle;resizable=0;points=[];autosize=1;strokeColor=none;fillColor=none;" vertex="1" parent="Nwy2QZYa2tBsVKEyR5RB-13">
          <mxGeometry x="90" y="60" width="40" height="30" as="geometry" />
        </mxCell>
        <mxCell id="Nwy2QZYa2tBsVKEyR5RB-18" value="&lt;font style=&quot;font-size: 8px;&quot;&gt;query&lt;/font&gt;" style="text;html=1;align=center;verticalAlign=middle;resizable=0;points=[];autosize=1;strokeColor=none;fillColor=none;" vertex="1" parent="1">
          <mxGeometry x="125" y="410" width="40" height="30" as="geometry" />
        </mxCell>
        <mxCell id="Nwy2QZYa2tBsVKEyR5RB-19" value="AI" style="swimlane;whiteSpace=wrap;html=1;strokeColor=default;dashed=1;" vertex="1" parent="1">
          <mxGeometry x="307" y="380" width="203" height="250" as="geometry" />
        </mxCell>
        <mxCell id="Nwy2QZYa2tBsVKEyR5RB-20" value="" style="rounded=0;whiteSpace=wrap;html=1;fillColor=none;dashed=1;dashPattern=1 2;" vertex="1" parent="Nwy2QZYa2tBsVKEyR5RB-19">
          <mxGeometry x="22.5" y="110" width="120" height="60" as="geometry" />
        </mxCell>
        <mxCell id="Nwy2QZYa2tBsVKEyR5RB-21" style="edgeStyle=orthogonalEdgeStyle;rounded=0;orthogonalLoop=1;jettySize=auto;html=1;exitX=0.5;exitY=1;exitDx=0;exitDy=0;exitPerimeter=0;" edge="1" parent="Nwy2QZYa2tBsVKEyR5RB-19" source="Nwy2QZYa2tBsVKEyR5RB-22" target="Nwy2QZYa2tBsVKEyR5RB-25">
          <mxGeometry relative="1" as="geometry" />
        </mxCell>
        <mxCell id="Nwy2QZYa2tBsVKEyR5RB-22" value="" style="aspect=fixed;sketch=0;html=1;dashed=0;whitespace=wrap;verticalLabelPosition=bottom;verticalAlign=top;fillColor=#2875E2;strokeColor=#ffffff;points=[[0.005,0.63,0],[0.1,0.2,0],[0.9,0.2,0],[0.5,0,0],[0.995,0.63,0],[0.72,0.99,0],[0.5,1,0],[0.28,0.99,0]];shape=mxgraph.kubernetes.icon2;prIcon=api" vertex="1" parent="Nwy2QZYa2tBsVKEyR5RB-19">
          <mxGeometry x="28" y="40" width="50" height="48" as="geometry" />
        </mxCell>
        <mxCell id="Nwy2QZYa2tBsVKEyR5RB-23" value="&lt;pre&gt;&lt;font style=&quot;font-size: 6px;&quot;&gt;&amp;lt;AI_BASE_URL&amp;gt;/magic-search&lt;/font&gt;&lt;/pre&gt;" style="text;html=1;align=center;verticalAlign=middle;resizable=0;points=[];autosize=1;strokeColor=none;fillColor=none;" vertex="1" parent="Nwy2QZYa2tBsVKEyR5RB-19">
          <mxGeometry x="-9" y="7" width="120" height="50" as="geometry" />
        </mxCell>
        <mxCell id="Nwy2QZYa2tBsVKEyR5RB-24" style="edgeStyle=orthogonalEdgeStyle;rounded=0;orthogonalLoop=1;jettySize=auto;html=1;entryX=0;entryY=0.5;entryDx=0;entryDy=0;" edge="1" parent="Nwy2QZYa2tBsVKEyR5RB-19" source="Nwy2QZYa2tBsVKEyR5RB-25" target="Nwy2QZYa2tBsVKEyR5RB-27">
          <mxGeometry relative="1" as="geometry" />
        </mxCell>
        <mxCell id="Nwy2QZYa2tBsVKEyR5RB-25" value="" style="sketch=0;outlineConnect=0;fontColor=#232F3E;gradientColor=none;fillColor=#ED7100;strokeColor=none;dashed=0;verticalLabelPosition=bottom;verticalAlign=top;align=center;html=1;fontSize=12;fontStyle=0;aspect=fixed;pointerEvents=1;shape=mxgraph.aws4.ec2_aws_microservice_extractor_for_net;rotation=0;" vertex="1" parent="Nwy2QZYa2tBsVKEyR5RB-19">
          <mxGeometry x="29" y="110" width="48" height="48" as="geometry" />
        </mxCell>
        <mxCell id="Nwy2QZYa2tBsVKEyR5RB-26" value="&lt;font style=&quot;font-size: 8px;&quot;&gt;extractor&lt;/font&gt;" style="text;html=1;align=center;verticalAlign=middle;resizable=0;points=[];autosize=1;strokeColor=none;fillColor=none;" vertex="1" parent="Nwy2QZYa2tBsVKEyR5RB-19">
          <mxGeometry x="27" y="145" width="50" height="30" as="geometry" />
        </mxCell>
        <mxCell id="Nwy2QZYa2tBsVKEyR5RB-27" value="" style="shape=image;html=1;verticalAlign=top;verticalLabelPosition=bottom;labelBackgroundColor=#ffffff;imageAspect=0;aspect=fixed;image=https://cdn4.iconfinder.com/data/icons/aiga-symbol-signs/444/aiga_information-128.png" vertex="1" parent="Nwy2QZYa2tBsVKEyR5RB-19">
          <mxGeometry x="103.5" y="125" width="18" height="18" as="geometry" />
        </mxCell>
        <mxCell id="Nwy2QZYa2tBsVKEyR5RB-28" value="&lt;font style=&quot;font-size: 8px;&quot;&gt;condenser&lt;/font&gt;" style="text;html=1;align=center;verticalAlign=middle;resizable=0;points=[];autosize=1;strokeColor=none;fillColor=none;" vertex="1" parent="Nwy2QZYa2tBsVKEyR5RB-19">
          <mxGeometry x="82.5" y="131" width="60" height="30" as="geometry" />
        </mxCell>
        <mxCell id="Nwy2QZYa2tBsVKEyR5RB-29" value="" style="sketch=0;pointerEvents=1;shadow=0;dashed=0;html=1;strokeColor=#82b366;fillColor=#d5e8d4;labelPosition=center;verticalLabelPosition=bottom;verticalAlign=top;outlineConnect=0;align=center;shape=mxgraph.office.communications.queue_viewer;" vertex="1" parent="Nwy2QZYa2tBsVKEyR5RB-19">
          <mxGeometry x="156" y="55" width="34.25" height="30" as="geometry" />
        </mxCell>
        <mxCell id="Nwy2QZYa2tBsVKEyR5RB-30" style="edgeStyle=orthogonalEdgeStyle;rounded=0;orthogonalLoop=1;jettySize=auto;html=1;entryX=0.995;entryY=0.63;entryDx=0;entryDy=0;entryPerimeter=0;" edge="1" parent="Nwy2QZYa2tBsVKEyR5RB-19" source="Nwy2QZYa2tBsVKEyR5RB-29" target="Nwy2QZYa2tBsVKEyR5RB-22">
          <mxGeometry relative="1" as="geometry" />
        </mxCell>
        <mxCell id="Nwy2QZYa2tBsVKEyR5RB-31" value="&lt;font style=&quot;font-size: 6px;&quot;&gt;Hotels match&lt;/font&gt;" style="text;html=1;align=center;verticalAlign=middle;resizable=0;points=[];autosize=1;strokeColor=none;fillColor=none;" vertex="1" parent="Nwy2QZYa2tBsVKEyR5RB-19">
          <mxGeometry x="143.12" y="30" width="60" height="30" as="geometry" />
        </mxCell>
        <mxCell id="Nwy2QZYa2tBsVKEyR5RB-50" value="" style="image;aspect=fixed;html=1;points=[];align=center;fontSize=12;image=img/lib/azure2/management_governance/Resource_Graph_Explorer.svg;" vertex="1" parent="Nwy2QZYa2tBsVKEyR5RB-19">
          <mxGeometry x="66.78999999999999" y="210" width="31.41" height="30" as="geometry" />
        </mxCell>
        <mxCell id="Nwy2QZYa2tBsVKEyR5RB-51" style="edgeStyle=orthogonalEdgeStyle;rounded=0;orthogonalLoop=1;jettySize=auto;html=1;exitX=0.5;exitY=1;exitDx=0;exitDy=0;entryX=0.509;entryY=0.067;entryDx=0;entryDy=0;entryPerimeter=0;" edge="1" parent="Nwy2QZYa2tBsVKEyR5RB-19" source="Nwy2QZYa2tBsVKEyR5RB-20" target="Nwy2QZYa2tBsVKEyR5RB-50">
          <mxGeometry relative="1" as="geometry" />
        </mxCell>
        <mxCell id="Nwy2QZYa2tBsVKEyR5RB-37" value="" style="endArrow=classic;html=1;rounded=0;exitX=0.9;exitY=0.2;exitDx=0;exitDy=0;exitPerimeter=0;entryX=0.1;entryY=0.2;entryDx=0;entryDy=0;entryPerimeter=0;" edge="1" parent="1" source="Nwy2QZYa2tBsVKEyR5RB-14" target="Nwy2QZYa2tBsVKEyR5RB-22">
          <mxGeometry width="50" height="50" relative="1" as="geometry">
            <mxPoint x="400" y="500" as="sourcePoint" />
            <mxPoint x="450" y="450" as="targetPoint" />
          </mxGeometry>
        </mxCell>
        <mxCell id="Nwy2QZYa2tBsVKEyR5RB-38" value="" style="endArrow=classic;html=1;rounded=0;exitX=0.9;exitY=0.5;exitDx=0;exitDy=0;exitPerimeter=0;entryX=0.083;entryY=0.321;entryDx=0;entryDy=0;entryPerimeter=0;" edge="1" parent="1" source="Nwy2QZYa2tBsVKEyR5RB-12" target="Nwy2QZYa2tBsVKEyR5RB-14">
          <mxGeometry width="50" height="50" relative="1" as="geometry">
            <mxPoint x="260" y="570" as="sourcePoint" />
            <mxPoint x="310" y="520" as="targetPoint" />
          </mxGeometry>
        </mxCell>
        <mxCell id="Nwy2QZYa2tBsVKEyR5RB-39" style="edgeStyle=orthogonalEdgeStyle;rounded=0;orthogonalLoop=1;jettySize=auto;html=1;exitX=0.005;exitY=0.63;exitDx=0;exitDy=0;exitPerimeter=0;entryX=1;entryY=0.75;entryDx=0;entryDy=0;" edge="1" parent="1" source="Nwy2QZYa2tBsVKEyR5RB-14" target="Nwy2QZYa2tBsVKEyR5RB-12">
          <mxGeometry relative="1" as="geometry" />
        </mxCell>
        <mxCell id="Nwy2QZYa2tBsVKEyR5RB-40" value="&lt;font style=&quot;font-size: 8px;&quot;&gt;answer&lt;/font&gt;" style="text;html=1;align=center;verticalAlign=middle;resizable=0;points=[];autosize=1;strokeColor=none;fillColor=none;" vertex="1" parent="1">
          <mxGeometry x="120" y="440" width="50" height="30" as="geometry" />
        </mxCell>
        <mxCell id="Nwy2QZYa2tBsVKEyR5RB-41" style="edgeStyle=orthogonalEdgeStyle;rounded=0;orthogonalLoop=1;jettySize=auto;html=1;exitX=0.005;exitY=0.63;exitDx=0;exitDy=0;exitPerimeter=0;entryX=0.995;entryY=0.63;entryDx=0;entryDy=0;entryPerimeter=0;" edge="1" parent="1" source="Nwy2QZYa2tBsVKEyR5RB-22" target="Nwy2QZYa2tBsVKEyR5RB-14">
          <mxGeometry relative="1" as="geometry" />
        </mxCell>
        <mxCell id="Nwy2QZYa2tBsVKEyR5RB-42" value="&lt;font style=&quot;font-size: 8px;&quot;&gt;&lt;b&gt;Question condenser&lt;/b&gt;&lt;/font&gt;" style="text;html=1;align=center;verticalAlign=middle;resizable=0;points=[];autosize=1;strokeColor=none;fillColor=none;" vertex="1" parent="1">
          <mxGeometry x="360" y="468" width="100" height="30" as="geometry" />
        </mxCell>
        <mxCell id="Nwy2QZYa2tBsVKEyR5RB-49" style="edgeStyle=orthogonalEdgeStyle;rounded=0;orthogonalLoop=1;jettySize=auto;html=1;entryX=0;entryY=0.5;entryDx=0;entryDy=0;" edge="1" parent="1" source="Nwy2QZYa2tBsVKEyR5RB-46" target="Nwy2QZYa2tBsVKEyR5RB-48">
          <mxGeometry relative="1" as="geometry" />
        </mxCell>
        <mxCell id="Nwy2QZYa2tBsVKEyR5RB-46" value="" style="image;aspect=fixed;html=1;points=[];align=center;fontSize=12;image=img/lib/azure2/management_governance/Resource_Graph_Explorer.svg;" vertex="1" parent="1">
          <mxGeometry x="201.5" y="271.65999999999997" width="67" height="64" as="geometry" />
        </mxCell>
        <mxCell id="Nwy2QZYa2tBsVKEyR5RB-48" value="" style="shape=image;verticalLabelPosition=bottom;labelBackgroundColor=default;verticalAlign=top;aspect=fixed;imageAspect=0;image=https://dist.neo4j.com/wp-content/uploads/20170726233003/hello-world-neo4j-inc-company-name-change.png;clipPath=inset(16.67% 0% 16.67% 33.33%);" vertex="1" parent="1">
          <mxGeometry x="320" y="287.41" width="65" height="32.5" as="geometry" />
        </mxCell>
        <mxCell id="Nwy2QZYa2tBsVKEyR5RB-52" style="edgeStyle=orthogonalEdgeStyle;rounded=0;orthogonalLoop=1;jettySize=auto;html=1;entryX=0;entryY=0.5;entryDx=0;entryDy=0;" edge="1" parent="1" source="Nwy2QZYa2tBsVKEyR5RB-50" target="Nwy2QZYa2tBsVKEyR5RB-53">
          <mxGeometry relative="1" as="geometry">
            <mxPoint x="409.20000000000005" y="675.875" as="targetPoint" />
            <Array as="points">
              <mxPoint x="390" y="640" />
              <mxPoint x="390" y="670" />
            </Array>
          </mxGeometry>
        </mxCell>
        <mxCell id="Nwy2QZYa2tBsVKEyR5RB-53" value="" style="shape=image;verticalLabelPosition=bottom;labelBackgroundColor=default;verticalAlign=top;aspect=fixed;imageAspect=0;image=https://dist.neo4j.com/wp-content/uploads/20170726233003/hello-world-neo4j-inc-company-name-change.png;clipPath=inset(16.67% 0% 16.67% 33.33%);" vertex="1" parent="1">
          <mxGeometry x="410" y="660" width="40" height="20" as="geometry" />
        </mxCell>
        <mxCell id="Nwy2QZYa2tBsVKEyR5RB-34" style="edgeStyle=orthogonalEdgeStyle;rounded=0;orthogonalLoop=1;jettySize=auto;html=1;exitX=1;exitY=0.25;exitDx=0;exitDy=0;" edge="1" parent="1" source="Nwy2QZYa2tBsVKEyR5RB-53" target="Nwy2QZYa2tBsVKEyR5RB-29">
          <mxGeometry relative="1" as="geometry">
            <mxPoint x="480.0689655172414" y="550.0761536358666" as="sourcePoint" />
          </mxGeometry>
        </mxCell>
      </root>
    </mxGraphModel>
  </diagram>
</mxfile>
